<?xml version="1.0" encoding="UTF-8"?>
<svg width="50" height="50" version="1.1" viewBox="0 0 700 700" xmlns="http://www.w3.org/2000/svg">
 <path d="m464.1 113.75h-227.5c-2.3828-0.09375-4.6992 0.78516-6.418 2.4375-1.7148 1.6484-2.6836 3.9297-2.6836 6.3125v315c0.03125 3.4766 2.082 6.6172 5.25 8.0508 3.1875 1.3516 6.8711 0.73828 9.4492-1.5742l107.8-100.45 108.15 100.45v0.003906c1.6523 1.4336 3.7617 2.2422 5.9531 2.2734 1.1484 0.26172 2.3477 0.26172 3.5 0 3.2695-1.6367 5.2148-5.1055 4.8984-8.75v-315c0.003906-4.6992-3.7031-8.5625-8.3984-8.75zm-9.1016 303.62-99.398-92.227c-1.5781-1.5781-3.7188-2.4688-5.9531-2.4688-2.2305 0-4.3711 0.89062-5.9492 2.4688l-98.699 92.227v-286.12h210z"/>
</svg>
